HIERARCHY
ROOT Hips
{
	OFFSET 0.00000 0.00000 0.00000
	CHANNELS 6 Xposition Yposition Zposition Zrotation Yrotation Xrotation 
	JOINT LHipJoint
	{
		OFFSET 0 0 0
		CHANNELS 3 Zrotation Yrotation Xrotation
		JOINT LeftUpLeg
		{
			OFFSET 1.17584 -1.63585 1.00361
			CHANNELS 3 Zrotation Yrotation Xrotation
			JOINT LeftLeg
			{
				OFFSET 2.23889 -6.15131 0.00000
				CHANNELS 3 Zrotation Yrotation Xrotation
				JOINT LeftFoot
				{
					OFFSET 2.65161 -7.28525 0.00000
					CHANNELS 3 Zrotation Yrotation Xrotation
					JOINT LeftToeBase
					{
						OFFSET 0.24898 -0.68407 1.57235
						CHANNELS 3 Zrotation Yrotation Xrotation
						End Site
						{
							OFFSET 0.00000 -0.00000 0.85838
						}
					}
				}
			}
		}
	}
	JOINT RHipJoint
	{
		OFFSET 0 0 0
		CHANNELS 3 Zrotation Yrotation Xrotation
		JOINT RightUpLeg
		{
			OFFSET -1.15592 -1.63585 1.00361
			CHANNELS 3 Zrotation Yrotation Xrotation
			JOINT RightLeg
			{
				OFFSET -2.34071 -6.43104 0.00000
				CHANNELS 3 Zrotation Yrotation Xrotation
				JOINT RightFoot
				{
					OFFSET -2.59113 -7.11908 0.00000
					CHANNELS 3 Zrotation Yrotation Xrotation
					JOINT RightToeBase
					{
						OFFSET -0.17867 -0.49089 1.70981
						CHANNELS 3 Zrotation Yrotation Xrotation
						End Site
						{
							OFFSET -0.00000 -0.00000 0.89861
						}
					}
				}
			}
		}
	}
	JOINT LowerBack
	{
		OFFSET 0 0 0
		CHANNELS 3 Zrotation Yrotation Xrotation
		JOINT Spine
		{
			OFFSET -0.02255 1.90764 -0.16605
			CHANNELS 3 Zrotation Yrotation Xrotation
			JOINT Spine1
			{
				OFFSET -0.00365 1.92150 -0.04898
				CHANNELS 3 Zrotation Yrotation Xrotation
				JOINT Neck
				{
					OFFSET 0 0 0
					CHANNELS 3 Zrotation Yrotation Xrotation
					JOINT Neck1
					{
						OFFSET 0.00372 1.59170 0.08694
						CHANNELS 3 Zrotation Yrotation Xrotation
						JOINT Head
						{
							OFFSET 0.12558 1.58643 -0.08078
							CHANNELS 3 Zrotation Yrotation Xrotation
							End Site
							{
								OFFSET 0.04211 1.60835 -0.03803
							}
						}
					}
				}
				JOINT LeftShoulder
				{
					OFFSET 0 0 0
					CHANNELS 3 Zrotation Yrotation Xrotation
					JOINT LeftArm
					{
						OFFSET 3.69324 0.96316 0.19077
						CHANNELS 3 Zrotation Yrotation Xrotation
						JOINT LeftForeArm
						{
							OFFSET 4.87796 -0.00000 -0.00000
							CHANNELS 3 Zrotation Yrotation Xrotation
							JOINT LeftHand
							{
								OFFSET 3.23169 -0.00000 0.00000
								CHANNELS 3 Zrotation Yrotation Xrotation
								JOINT LeftFingerBase
								{
									OFFSET 0 0 0
									CHANNELS 3 Zrotation Yrotation Xrotation
									JOINT LeftHandIndex1
									{
										OFFSET 0.73132 -0.00000 0.00000
										CHANNELS 3 Zrotation Yrotation Xrotation
										End Site
										{
											OFFSET 0.58961 -0.00000 0.00000
										}
									}
								}
								JOINT LThumb
								{
									OFFSET 0 0 0
									CHANNELS 3 Zrotation Yrotation Xrotation
									End Site
									{
										OFFSET 0.59861 -0.00000 0.59861
									}
								}
							}
						}
					}
				}
				JOINT RightShoulder
				{
					OFFSET 0 0 0
					CHANNELS 3 Zrotation Yrotation Xrotation
					JOINT RightArm
					{
						OFFSET -3.66103 0.75145 0.08281
						CHANNELS 3 Zrotation Yrotation Xrotation
						JOINT RightForeArm
						{
							OFFSET -4.91430 -0.00000 0.00000
							CHANNELS 3 Zrotation Yrotation Xrotation
							JOINT RightHand
							{
								OFFSET -3.29093 -0.00000 0.00000
								CHANNELS 3 Zrotation Yrotation Xrotation
								JOINT RightFingerBase
								{
									OFFSET 0 0 0
									CHANNELS 3 Zrotation Yrotation Xrotation
									JOINT RightHandIndex1
									{
										OFFSET -0.54512 -0.00000 0.00000
										CHANNELS 3 Zrotation Yrotation Xrotation
										End Site
										{
											OFFSET -0.43949 -0.00000 0.00000
										}
									}
								}
								JOINT RThumb
								{
									OFFSET 0 0 0
									CHANNELS 3 Zrotation Yrotation Xrotation
									End Site
									{
										OFFSET -0.44620 -0.00000 0.44620
									}
								}
							}
						}
					}
				}
			}
		}
	}
}
MOTION
Frames: 14
Frame Time: .0083333
-1.3648 11.9546 -5.9426 -774.9790 -13.5885 1139.7200 0.0000 0.0000 0.0000 -8.1861 -11.1375 -72.9667 10.8613 17.8665 62.3302 2.6882 -4.4053 -30.0240 3.5954 11.6017 34.3370 0.0000 0.0000 0.0000 -13.4048 25.8555 -106.4325 -16.5950 -19.7197 79.9995 0.5785 13.7531 1.4663 -1.3454 -7.3434 20.7369 -1.4262 0.5414 21.2835 -0.4350 -0.0196 11.4140 0.3470 -0.2899 0.5059 0.6055 -2.2339 -0.3897 24.1415 -3.6077 -0.4234 7.2495 -2.1599 0.4015 0.0000 -0.0000 0.0000 -29.3461 -21.6770 -9.3150 13.3574 -21.8086 -2.5845 -0.0000 0.0000 -9.8713 27.4495 -14.5422 -7.4311 -7.1250 0.0000 -0.0000 -0.0457 13.6854 0.0336 0.0000 -0.0000 0.0000 66.1242 -22.2209 20.2430 -17.9235 28.0591 -4.5132 0.0000 0.0000 9.7247 -20.2742 -15.0679 5.4853 7.1250 -0.0000 -0.0000 6.8828 -45.8787 -0.1500
-1.4955 12.0599 -5.9380 -774.5780 -13.0863 1139.4500 0.0000 0.0000 0.0000 -7.4037 -11.8021 -72.2538 10.7218 17.7963 61.8749 2.7784 -3.4814 -30.7210 3.5455 11.5297 34.0880 0.0000 0.0000 0.0000 -9.7569 26.9739 -108.4443 -16.2772 -19.6644 79.0566 0.6364 14.1772 2.6398 -1.4818 -7.6910 21.7794 -2.1238 0.7145 21.2808 -0.6670 0.0751 11.5984 0.4747 -0.2712 0.7098 0.5085 -2.2558 -0.8383 24.4151 -3.6652 -0.4903 7.3485 -2.1698 0.4783 -0.0000 -0.0000 0.0000 -27.5530 -22.0715 -10.9659 13.0571 -21.3708 -2.4740 -0.0000 0.0000 -8.8813 26.6734 -14.5205 -7.1789 -7.1250 0.0000 -0.0000 -0.5679 13.8164 0.4159 -0.0000 -0.0000 0.0000 68.0758 -22.5307 20.5515 -17.7787 27.8729 -4.4453 0.0000 0.0000 9.6898 -20.1981 -15.0764 5.4660 7.1250 -0.0000 -0.0000 6.9552 -45.8776 -0.1514
-1.6268 12.1658 -5.9332 -773.9570 -12.4806 1139.0800 0.0000 0.0000 0.0000 -6.7799 -12.5990 -71.4872 10.5553 17.7105 61.3288 2.8293 -2.5834 -31.2073 3.3907 11.3022 33.3058 0.0000 0.0000 0.0000 -6.0922 28.2084 -110.1149 -16.0326 -19.6184 78.3288 0.6936 14.6195 4.0430 -1.6515 -8.0990 23.0151 -2.7301 0.7725 21.3518 -0.9169 0.0429 11.7456 0.5570 -0.3082 0.8407 0.5318 -2.2320 -1.0354 24.5873 -3.6024 -0.7086 7.4013 -2.1484 0.4465 0.0000 -0.0000 0.0000 -25.6778 -22.5002 -12.7020 12.6214 -20.7300 -2.3176 -0.0000 0.0000 -7.7805 25.9593 -14.3720 -6.8905 -7.1250 0.0000 -0.0000 -1.0389 14.0746 0.7552 0.0000 -0.0000 0.0000 69.8833 -22.9876 21.3202 -17.8042 27.9057 -4.4572 0.0000 0.0000 9.2099 -20.0616 -15.0997 5.4343 7.1250 -0.0000 -0.0000 7.0869 -45.8843 -0.1555
-1.7604 12.2686 -5.9280 -773.1220 -11.6885 1138.6000 0.0000 0.0000 0.0000 -6.3265 -13.5072 -70.6781 10.3532 17.6037 60.6623 2.8311 -1.6017 -31.4575 3.0830 10.8281 31.7024 0.0000 0.0000 0.0000 -2.3735 29.4690 -111.4424 -15.8518 -19.5823 77.7897 0.7372 14.9977 5.5790 -1.8079 -8.4539 24.1015 -3.1998 0.6981 21.5159 -1.1358 -0.1311 11.8530 0.6235 -0.4062 0.8874 0.6546 -2.1614 -0.9887 24.6519 -3.4234 -1.0509 7.4086 -2.0947 0.3158 -0.0000 0.0000 0.0000 -23.8074 -22.8614 -14.4127 12.1168 -19.9795 -2.1420 -0.0000 0.0000 -6.5951 25.3227 -14.0695 -6.5619 -7.1250 0.0000 -0.0000 -1.4479 14.4868 1.0400 -0.0000 0.0000 0.0000 71.4795 -23.5877 22.5116 -17.9584 28.1039 -4.5296 0.0000 0.0000 8.4379 -19.8973 -15.1042 5.3878 7.1250 -0.0000 -0.0000 7.2401 -45.8681 -0.1559
-1.8915 12.3723 -5.9213 -772.1070 -10.6677 1138.0600 0.0000 0.0000 0.0000 -5.9957 -14.4602 -69.8864 10.1287 17.4816 59.9176 2.7996 -0.9008 -31.4666 2.7969 10.3589 30.1468 0.0000 0.0000 0.0000 1.4556 30.7040 -112.3865 -15.6985 -19.5505 77.3321 0.7620 15.3049 7.2283 -1.9343 -8.7278 24.9474 -3.4999 0.5062 21.7506 -1.2891 -0.4220 11.9497 0.6881 -0.5535 0.8925 0.8522 -2.0767 -0.8400 24.6331 -3.1953 -1.4764 7.3784 -2.0301 0.1333 -0.0000 0.0000 0.0000 -21.9894 -23.2966 -16.3713 11.5218 -19.0836 -1.9431 -0.0000 0.0000 -5.0076 24.7740 -13.6528 -6.2170 -7.1250 0.0000 -0.0000 -1.7928 15.0077 1.2681 -0.0000 0.0000 0.0000 72.8559 -24.2427 23.9905 -18.1695 28.3736 -4.6295 0.0000 0.0000 7.5942 -19.7617 -15.0395 5.3260 7.1250 -0.0000 -0.0000 7.3507 -45.7836 -0.1429
-2.0209 12.4767 -5.9131 -770.9590 -9.4271 1137.5100 0.0000 0.0000 0.0000 -5.8241 -15.3624 -69.1535 9.8847 17.3445 59.1022 2.7426 -0.5056 -31.2521 2.5608 9.9476 28.8071 0.0000 0.0000 0.0000 5.4044 31.8966 -112.9629 -15.5467 -19.5177 76.8780 0.7563 15.4640 8.9181 -2.0045 -8.8755 25.4067 -3.6324 0.2231 22.0320 -1.3806 -0.7956 12.0305 0.7428 -0.7330 0.8599 1.1349 -1.9993 -0.6071 24.5715 -2.9567 -1.9625 7.3214 -1.9724 -0.0852 0.0000 0.0000 0.0000 -20.1897 -23.9801 -18.9431 10.7829 -17.9548 -1.7084 -0.0000 0.0000 -2.5957 24.3277 -13.1817 -5.8862 -7.1250 0.0000 -0.0000 -2.0684 15.5711 1.4382 0.0000 0.0000 0.0000 74.0525 -24.9264 25.6245 -18.3637 28.6203 -4.7221 0.0000 0.0000 6.9316 -19.7157 -14.8293 5.2405 7.1250 -0.0000 -0.0000 7.3453 -45.5584 -0.1018
-2.1480 12.5840 -5.9033 -769.7200 -8.0045 1136.9600 0.0000 0.0000 0.0000 -5.8258 -16.1229 -68.5127 9.6348 17.1993 58.2607 2.6764 -0.5911 -30.8414 2.4409 9.7297 28.1057 0.0000 0.0000 0.0000 9.4480 33.0474 -113.1436 -15.3596 -19.4757 76.3175 0.7075 15.4038 10.6786 -2.0851 -9.0411 25.9238 -3.6350 -0.1119 22.3285 -1.3976 -1.2075 12.1561 0.8126 -0.9289 0.8703 1.4354 -1.9631 -0.5522 24.5208 -2.7930 -2.4503 7.2614 -1.9424 -0.2625 -0.0000 0.0000 0.0000 -18.3923 -24.9941 -22.4667 9.9435 -16.6511 -1.4587 -0.0000 -0.0000 0.9109 24.0249 -12.7424 -5.6152 -7.1250 0.0000 -0.0000 -2.2509 16.0809 1.5405 -0.0000 0.0000 0.0000 75.0937 -25.4852 27.2559 -18.4687 28.7532 -4.7726 0.0000 0.0000 6.6455 -19.8148 -14.4131 5.1249 7.1250 -0.0000 -0.0000 7.1617 -45.1369 -0.0243
-2.2742 12.6931 -5.8917 -768.4200 -6.4367 1136.4300 0.0000 0.0000 0.0000 -6.0502 -16.6733 -67.9714 9.3792 17.0457 57.3926 2.5951 -1.0898 -30.2185 2.3647 9.5877 27.6517 0.0000 0.0000 0.0000 13.5246 34.1411 -112.9349 -15.1154 -19.4181 75.5841 0.5982 15.0313 12.5534 -2.2540 -9.3763 26.9796 -3.5504 -0.4796 22.6081 -1.3413 -1.6389 12.3300 0.9161 -1.1344 0.9438 1.7042 -1.9758 -0.6905 24.5329 -2.7242 -2.9146 7.2237 -1.9479 -0.3847 0.0000 -0.0000 0.0000 -16.6110 -26.2641 -26.9240 9.0918 -15.3066 -1.2242 -0.0000 -0.0000 5.5503 23.9868 -12.3699 -5.4449 -7.1250 0.0000 -0.0000 -2.2563 16.4885 1.5243 0.0000 -0.0000 0.0000 75.9827 -25.8938 28.8311 -18.4375 28.7137 -4.7576 0.0000 0.0000 6.8516 -20.0981 -13.8009 4.9885 7.1250 -0.0000 -0.0000 6.7729 -44.5313 0.0787
-2.3999 12.8022 -5.8777 -767.0450 -4.7602 1135.9400 0.0000 0.0000 0.0000 -6.5571 -17.0043 -67.5121 9.1212 16.8851 56.5082 2.4895 -1.9248 -29.3621 2.2635 9.3946 27.0376 0.0000 0.0000 0.0000 17.5351 35.1294 -112.3659 -14.7996 -19.3388 74.6322 0.4200 14.3105 14.5199 -2.5926 -10.0044 28.9909 -3.3956 -0.8765 22.8628 -1.2462 -2.0880 12.5016 1.0260 -1.3457 1.0271 1.9589 -2.0387 -0.8373 24.6498 -2.7343 -3.3571 7.2226 -1.9951 -0.4876 0.0000 -0.0000 0.0000 -14.8488 -27.7593 -32.0429 8.2875 -14.0178 -1.0206 -0.0000 -0.0000 11.2710 24.3937 -11.9686 -5.3724 -7.1250 0.0000 -0.0000 -1.9515 16.8816 1.3015 0.0000 -0.0000 0.0000 76.7761 -26.2635 30.2966 -18.2536 28.4806 -4.6695 0.0000 0.0000 7.5647 -20.5115 -13.0709 4.8362 7.1250 -0.0000 -0.0000 6.2526 -43.8133 0.1839
-2.5260 12.9083 -5.8605 -765.5570 -2.9963 1135.4800 0.0000 0.0000 0.0000 -7.4249 -17.1384 -67.0963 8.8584 16.7158 55.5993 2.3439 -2.9583 -28.2225 2.1189 9.1094 26.1382 0.0000 0.0000 0.0000 21.3395 35.9488 -111.5100 -14.4178 -19.2359 73.4763 0.1900 13.3617 16.4932 -2.9923 -10.6826 31.2169 -3.1740 -1.3103 23.0963 -1.1383 -2.5654 12.6690 1.1187 -1.5667 1.1155 2.2222 -2.1560 -1.0015 24.8674 -2.8361 -3.7497 7.2521 -2.0877 -0.5604 -0.0000 0.0000 0.0000 -13.0968 -29.4934 -37.4442 7.5743 -12.8604 -0.8549 -0.0000 -0.0000 17.8615 25.2337 -11.7264 -5.4713 -7.1250 0.0000 -0.0000 -1.3526 17.0582 0.8966 -0.0000 0.0000 0.0000 77.5227 -26.6159 31.5970 -17.9269 28.0635 -4.5148 0.0000 0.0000 8.6554 -20.9255 -12.3592 4.6788 7.1250 -0.0000 -0.0000 5.7485 -43.1089 0.2692
-2.6528 13.0093 -5.8396 -763.9330 -1.1450 1135.0300 0.0000 0.0000 0.0000 -8.6697 -17.1075 -66.6838 8.5938 16.5391 54.6743 2.1512 -4.1969 -26.7550 1.8995 8.6535 24.7173 0.0000 0.0000 0.0000 24.8054 36.5569 -110.4582 -13.9865 -19.1099 72.1634 0.0066 12.5613 17.7809 -3.2842 -11.1415 32.7586 -2.8743 -1.7962 23.3014 -1.0281 -3.0876 12.8353 1.1794 -1.8043 1.2138 2.5082 -2.3255 -1.1775 25.1471 -3.0267 -4.0860 7.2967 -2.2231 -0.6034 -0.0000 0.0000 0.0000 -11.3943 -31.3955 -42.3233 7.0004 -11.9200 -0.7317 -0.0000 -0.0000 24.6931 26.5144 -11.5373 -5.6982 -7.1250 0.0000 -0.0000 -0.4479 17.1294 0.2961 -0.0000 0.0000 0.0000 78.2425 -26.9768 32.6991 -17.4981 27.5098 -4.3149 0.0000 0.0000 9.9126 -21.1954 -11.8115 4.5384 7.1250 -0.0000 -0.0000 5.4128 -42.5584 0.3271
-2.7805 13.1054 -5.8157 -762.1710 0.7806 1134.6200 0.0000 0.0000 0.0000 -10.2697 -16.9423 -66.2507 8.3331 16.3588 53.7536 1.9076 -5.6427 -24.9326 1.6106 8.0029 22.7230 0.0000 0.0000 0.0000 27.6133 36.9381 -109.3934 -13.5456 -18.9704 70.8119 0.0182 12.3259 17.2934 -3.4391 -11.3741 33.5522 -2.5181 -2.3340 23.4592 -0.9142 -3.6579 12.9903 1.2219 -2.0607 1.3194 2.8005 -2.5390 -1.3537 25.4432 -3.2943 -4.3570 7.3439 -2.3922 -0.6179 0.0000 0.0000 0.0000 -10.2431 -32.8174 -42.0110 7.0683 -12.0316 -0.7458 -0.0000 -0.0000 27.5109 27.7948 -11.0072 -5.7472 -7.1250 0.0000 -0.0000 0.4839 17.5793 -0.3152 0.0000 0.0000 0.0000 78.9414 -27.3897 33.5531 -17.0116 26.8731 -4.0926 0.0000 0.0000 11.1398 -21.1702 -11.5168 4.4214 7.1250 -0.0000 -0.0000 5.3871 -42.2438 0.3675
-2.9107 13.1977 -5.7899 -760.2700 2.7495 1134.2600 0.0000 0.0000 0.0000 -12.2406 -16.5997 -65.8022 8.0868 16.1827 52.8746 1.6077 -7.3195 -22.7111 1.2237 7.0161 19.7632 0.0000 0.0000 0.0000 29.3940 37.1104 -108.5151 -13.1274 -18.8277 69.5207 0.2028 12.3569 14.5848 -3.4966 -11.4585 33.8424 -2.1582 -2.8977 23.5488 -0.7946 -4.2539 13.1218 1.2721 -2.3274 1.4305 3.1130 -2.7992 -1.4960 25.7096 -3.6331 -4.5876 7.3767 -2.5951 -0.6194 -0.0000 0.0000 0.0000 -9.0811 -34.5285 -40.6080 7.0529 -12.0064 -0.7426 -0.0000 -0.0000 30.1987 29.1620 -10.7948 -5.9664 -7.1250 0.0000 -0.0000 1.4568 17.6655 -0.9464 -0.0000 0.0000 0.0000 79.6451 -27.9040 34.0984 -16.5008 26.1950 -3.8644 0.0000 0.0000 12.1959 -20.7577 -11.4952 4.3195 7.1250 -0.0000 -0.0000 5.7512 -42.1790 0.4017
-3.0475 13.2834 -5.7635 -758.2860 4.7005 1133.9700 0.0000 0.0000 0.0000 -14.5415 -16.0247 -65.3956 7.8730 16.0251 52.1040 1.2505 -9.1665 -20.0714 0.7324 5.4676 15.2472 0.0000 0.0000 0.0000 29.8846 37.1774 -107.9794 -12.7603 -18.6939 68.3794 0.3688 11.9867 10.2093 -3.6103 -11.6230 34.4110 -1.8569 -3.4424 23.5058 -0.6663 -4.8329 13.2181 1.3541 -2.5875 1.5685 3.4092 -3.1086 -1.5667 25.9416 -4.0359 -4.7963 7.4006 -2.8309 -0.6207 -0.0000 -0.0000 0.0000 -7.9579 -36.5108 -38.1701 6.9800 -11.8863 -0.7275 -0.0000 -0.0000 32.6433 30.6716 -11.1475 -6.5412 -7.1250 0.0000 -0.0000 2.4768 17.0834 -1.6414 -0.0000 -0.0000 0.0000 80.3280 -28.5648 34.3709 -15.9893 25.5062 -3.6414 0.0000 0.0000 12.9828 -19.9761 -11.7190 4.2225 7.1250 -0.0000 -0.0000 6.4856 -42.3359 0.4283
